<svg id="ai-dark" xmlns="http://www.w3.org/2000/svg" width="262.002" height="270" viewBox="0 0 262.002 270">
  <path id="Path_1" data-name="Path 1" d="M189.565,228.739a8.79,8.79,0,0,0-6.679,0,8.4,8.4,0,0,0-2.746,1.846l-.066.044a7.889,7.889,0,0,0-1.186,1.494,9.136,9.136,0,0,0-.505.923H164.518V221a29.97,29.97,0,0,1-6.613,2.2c-.4.088-.769.154-1.164.22v13.49a3.9,3.9,0,0,0,3.889,3.889h17.884a7.368,7.368,0,0,0,.461.791,8.5,8.5,0,0,0,1.055,1.3l.066.066a8.661,8.661,0,0,0,2.834,1.889,8.872,8.872,0,0,0,3.34.659,8.6,8.6,0,0,0,3.274-.637l.066-.022a8.9,8.9,0,0,0,2.834-1.889,8.661,8.661,0,0,0,1.889-2.834,8.872,8.872,0,0,0,.659-3.34,9.046,9.046,0,0,0-.659-3.34,8.661,8.661,0,0,0-1.889-2.834,9.693,9.693,0,0,0-2.878-1.867Zm-63.386-82.391H109.92l-2.329,7.646H92.959l17.467-46.4h15.687l17.4,46.4H128.508l-2.329-7.646Zm-3.032-10.063-5.075-16.676-5.1,16.676Zm24.41-28.716h14.391v46.4H147.556v-46.4ZM136.593,60a25.4,25.4,0,0,0-6.481,7.009,1.015,1.015,0,0,1-.374.374,1.292,1.292,0,0,1-1.758-.374A25.4,25.4,0,0,0,121.5,60a20.759,20.759,0,0,0-8.129-3.581h-.044A22.127,22.127,0,0,0,105,56.333a25.088,25.088,0,0,0-8.173,3.01,26.364,26.364,0,0,0-6.591,5.471,23.01,23.01,0,0,0-4.2,7.053h0c-.154.4-.286.813-.417,1.252-.11.4-.242.835-.33,1.274A1.249,1.249,0,0,1,84.083,75.4a24.022,24.022,0,0,0-8.591,3.12,29.531,29.531,0,0,0-7.558,6.569,33.141,33.141,0,0,0-5.361,9.36,34.729,34.729,0,0,0-2.131,10.766c-.022.505-.022.989-.022,1.494,0,.461.022.945.022,1.45a1.287,1.287,0,0,1-.527,1.121,45.728,45.728,0,0,0-4.878,4.021,35.9,35.9,0,0,0-3.889,4.416,28.885,28.885,0,0,0-4.065,7.69,26.188,26.188,0,0,0-.374,16.039,29.138,29.138,0,0,0,3.362,7.4h0a34.222,34.222,0,0,0,2.812,3.889,37.366,37.366,0,0,0,3.427,3.559,1.309,1.309,0,0,1,.4,1.186,29.734,29.734,0,0,0-.593,4.943,30.4,30.4,0,0,0,.264,4.921A29.622,29.622,0,0,0,58.86,175.7a31.557,31.557,0,0,0,4.878,7.514,32.311,32.311,0,0,0,6.284,5.625,30.029,30.029,0,0,0,7.25,3.669,26.211,26.211,0,0,0,3.427.9,21.117,21.117,0,0,0,3.274.4,1.269,1.269,0,0,1,1.274,1.011,21.863,21.863,0,0,0,3.076,7.294,25.212,25.212,0,0,0,5.625,6.108,25.66,25.66,0,0,0,9.447,4.636,22.142,22.142,0,0,0,9.975.264,21.271,21.271,0,0,0,8.569-3.911,25.972,25.972,0,0,0,6.657-7.624,1.149,1.149,0,0,1,.505-.461,1.271,1.271,0,0,1,1.714.527,23.508,23.508,0,0,0,5.668,7.075,20.525,20.525,0,0,0,7.6,3.955,22.518,22.518,0,0,0,10.546.22,27.4,27.4,0,0,0,10.436-4.636,26.755,26.755,0,0,0,6.306-6.284,22.778,22.778,0,0,0,3.537-7.448,1.26,1.26,0,0,1,1.033-1.033,24.049,24.049,0,0,0,9.338-3.911,30.347,30.347,0,0,0,7.756-7.778,33.546,33.546,0,0,0,4.636-9.887,35.081,35.081,0,0,0,1.274-10.985,1.223,1.223,0,0,1,.549-1.142,44.241,44.241,0,0,0,5.053-4.043,34.38,34.38,0,0,0,4-4.5h0a28.258,28.258,0,0,0,3.955-7.36A26.358,26.358,0,0,0,214,135.956a27.13,27.13,0,0,0-.9-7.624,29.148,29.148,0,0,0-3.032-7.272l-.044-.044a34.029,34.029,0,0,0-3.054-4.372,36.17,36.17,0,0,0-3.823-3.977,1.29,1.29,0,0,1-.417-1.208,29.31,29.31,0,0,0,.571-4.526,30.381,30.381,0,0,0-.132-4.482,29.325,29.325,0,0,0-2.329-8.657,31.955,31.955,0,0,0-4.878-7.8,33.341,33.341,0,0,0-6.394-5.822,29.386,29.386,0,0,0-7.338-3.757l-.066-.022a24.728,24.728,0,0,0-4.043-1.011h-.044a21.689,21.689,0,0,0-3.933-.286,1.274,1.274,0,0,1-1.318-.967,21.629,21.629,0,0,0-.835-2.637A25.075,25.075,0,0,0,170.78,68.9a24.028,24.028,0,0,0-4.57-5.954,26.768,26.768,0,0,0-6.284-4.46,24.49,24.49,0,0,0-7.558-2.395,22.126,22.126,0,0,0-7.6.22A22.955,22.955,0,0,0,136.593,60Zm35.922,24.739a1.306,1.306,0,0,1,1.142-.9,12.135,12.135,0,0,1,2.812.132,17.5,17.5,0,0,1,2.9.725,21.243,21.243,0,0,1,5.339,2.746,23.87,23.87,0,0,1,4.614,4.218l.022.044a23.059,23.059,0,0,1,3.537,5.647,20.876,20.876,0,0,1,1.67,6.174,20.6,20.6,0,0,1-.022,4.5,20.157,20.157,0,0,1-.989,4.372l-.022.088a4.348,4.348,0,0,0,0,2.746,4.284,4.284,0,0,0,1.692,2.2l.066.044a27.789,27.789,0,0,1,4.087,3.713,25.339,25.339,0,0,1,3.164,4.284,20.39,20.39,0,0,1,2.175,5.119,17.363,17.363,0,0,1-.4,10.612,20.183,20.183,0,0,1-2.7,4.987l-.022.022a26.2,26.2,0,0,1-4.043,4.306,37.656,37.656,0,0,1-5.361,3.779l-.066.044a4.142,4.142,0,0,0-1.758,1.977,4.367,4.367,0,0,0-.286,2.593l.022.176a27.094,27.094,0,0,1-.461,9.491,24.76,24.76,0,0,1-3.735,8.481,22.279,22.279,0,0,1-4.394,4.746,16.719,16.719,0,0,1-5.251,2.878h-.022a1.278,1.278,0,0,1-1.582-.835c-2.483-8.107-6.767-10.722-14.017-14.457l-.154-.088a4.229,4.229,0,0,0-3.1-.22,3.934,3.934,0,0,0-2.351,1.977l-.066.132a4.127,4.127,0,0,0,1.824,5.493c6.064,3.1,10.546,5.449,10.48,13.051a12.776,12.776,0,0,1-1.911,6.437,18.977,18.977,0,0,1-5.141,5.471,19.208,19.208,0,0,1-6.987,3.208,14.361,14.361,0,0,1-7.031-.044,12.81,12.81,0,0,1-7.975-6.7,35.055,35.055,0,0,1-3.1-9.491.968.968,0,0,1-.044-.352c0-1.582-1.23-2.615-2.834-3.076a7.522,7.522,0,0,0-2.219-.308,8.2,8.2,0,0,0-2.219.308c-1.582.483-2.812,1.516-2.812,3.076a1.483,1.483,0,0,1-.044.308,29.474,29.474,0,0,1-5.1,11.183,14.129,14.129,0,0,1-8.239,5.4,14.352,14.352,0,0,1-6.481-.22,17.9,17.9,0,0,1-6.174-3.076,16.539,16.539,0,0,1-4.394-5.119,12.734,12.734,0,0,1-1.6-6.042c0-8,4.834-10.678,11.227-13.951a4.127,4.127,0,0,0-3.691-7.382l-.066.022c-7.536,3.845-12.04,6.657-14.742,15.028a1.3,1.3,0,0,1-1.274.945,13.5,13.5,0,0,1-2.263-.264,14.773,14.773,0,0,1-2.2-.615,22.155,22.155,0,0,1-5.229-2.658,24.162,24.162,0,0,1-4.548-4.087,23.22,23.22,0,0,1-3.537-5.449,21.246,21.246,0,0,1-1.8-5.954V166.3a19.317,19.317,0,0,1-.088-4.79,20.737,20.737,0,0,1,1.033-4.724l.022-.066a4.3,4.3,0,0,0,.022-2.68l-.022-.044a4.289,4.289,0,0,0-1.648-2.2l-.044-.044a27.057,27.057,0,0,1-3.8-3.406,24.943,24.943,0,0,1-2.988-3.911,21.612,21.612,0,0,1-2.329-5.207,18.67,18.67,0,0,1-.747-5.4,17.6,17.6,0,0,1,1.011-5.647,20.729,20.729,0,0,1,2.834-5.295,26.628,26.628,0,0,1,3.977-4.306,36.7,36.7,0,0,1,5.207-3.823,4.244,4.244,0,0,0,1.6-1.758l.022-.066a4.111,4.111,0,0,0,.374-2.351,1.07,1.07,0,0,1-.022-.264v-.044c-.11-.769-.176-1.538-.22-2.285-.044-.813-.044-1.626-.022-2.417a26,26,0,0,1,1.56-8.019,24.539,24.539,0,0,1,3.955-6.965,20.665,20.665,0,0,1,4.482-4.109,16.151,16.151,0,0,1,5.031-2.285h0a1.278,1.278,0,0,1,1.582.835A21.082,21.082,0,0,0,91.97,95.09l.132.11A4.031,4.031,0,0,0,95,96.254a3.986,3.986,0,0,0,2.79-1.274l.066-.088a4.031,4.031,0,0,0,1.055-2.9,4.176,4.176,0,0,0-1.318-2.856,12.319,12.319,0,0,1-4.021-6.415,12.181,12.181,0,0,1,.132-8.063A14.521,14.521,0,0,1,96.518,70a17.32,17.32,0,0,1,4.306-3.559l.066-.044a16.954,16.954,0,0,1,5.339-2.021,13.87,13.87,0,0,1,5.383.022,13.729,13.729,0,0,1,7.141,4.131,23.994,23.994,0,0,1,4.943,8.415l.022.044c.461,1.428,1.955,2.263,3.713,2.593a10.053,10.053,0,0,0,2.439.154h.022a9.262,9.262,0,0,0,2.373-.439,3.672,3.672,0,0,0,2.593-2.043v-.505c0-2.549,1.516-5.251,3.6-7.47a16.59,16.59,0,0,1,7.91-4.856,14.012,14.012,0,0,1,4.878-.11,16.59,16.59,0,0,1,4.834,1.56l.132.044a18.017,18.017,0,0,1,4.24,2.988,16.336,16.336,0,0,1,3.076,4,12.386,12.386,0,0,1,1.428,7.734c-.352,2.439-.439,3.977-2.483,6.415l-.022.022a4.078,4.078,0,0,0-.945,2.988,4.031,4.031,0,0,0,1.362,2.7l.132.11a4.1,4.1,0,0,0,5.647-.461l.11-.154c2.109-2.5,2.79-4.35,3.757-7.514Zm48.248,107.525a8.79,8.79,0,0,1,0-6.679,8.4,8.4,0,0,1,1.846-2.746l.044-.066a7.888,7.888,0,0,1,1.494-1.186,9.136,9.136,0,0,1,.923-.505V167.22H208.02c.022-.9.022-1.8-.022-2.724a1.392,1.392,0,0,1,.615-1.3,48.067,48.067,0,0,0,4.812-3.757h15.511a3.9,3.9,0,0,1,3.889,3.889v17.884a7.368,7.368,0,0,1,.791.461,8.5,8.5,0,0,1,1.3,1.055l.066.066a8.661,8.661,0,0,1,1.889,2.834,8.872,8.872,0,0,1,.659,3.34,8.688,8.688,0,0,1-.637,3.274l-.022.066a8.9,8.9,0,0,1-1.889,2.834,8.661,8.661,0,0,1-2.834,1.889,8.872,8.872,0,0,1-3.34.659,9.046,9.046,0,0,1-3.34-.659,8.661,8.661,0,0,1-2.834-1.889,9.694,9.694,0,0,1-1.867-2.878Zm24.7-44.491H222.279c.4-.857.747-1.714,1.055-2.593A27.628,27.628,0,0,0,224.652,140h20.806c.154-.286.308-.571.483-.857a8.148,8.148,0,0,1,1.142-1.428,8.548,8.548,0,0,1,2.834-1.889,8.872,8.872,0,0,1,3.34-.659,8.688,8.688,0,0,1,3.274.637l.066.022a8.9,8.9,0,0,1,2.834,1.889,8.661,8.661,0,0,1,1.889,2.834,8.872,8.872,0,0,1,.659,3.34,9.046,9.046,0,0,1-.659,3.34,8.684,8.684,0,0,1-4.724,4.724,8.872,8.872,0,0,1-3.34.659,8.688,8.688,0,0,1-3.274-.637l-.066-.022a8.9,8.9,0,0,1-2.834-1.889,8.576,8.576,0,0,1-1.121-1.384l-.044-.066c-.154-.264-.308-.549-.461-.835Zm7.382-21.268H223.685a34.194,34.194,0,0,0-3.12-7.141l-.044-.066c-.11-.2-.22-.373-.33-.571h28.782V93.354c-.22-.132-.439-.264-.659-.417a8.929,8.929,0,0,1-1.208-1.011,8.661,8.661,0,0,1-1.889-2.834,8.743,8.743,0,0,1,1.889-9.513,8.661,8.661,0,0,1,2.834-1.889,8.872,8.872,0,0,1,3.34-.659,9.046,9.046,0,0,1,3.34.659,8.685,8.685,0,0,1,4.724,4.724,8.872,8.872,0,0,1,.659,3.34,8.688,8.688,0,0,1-.637,3.274l-.022.066a8.9,8.9,0,0,1-1.889,2.834,8.829,8.829,0,0,1-2.7,1.846V122.6a3.938,3.938,0,0,1-3.911,3.911Zm-30.474-18.763h-9.931a32.531,32.531,0,0,0,.483-4.35c.044-1.164.044-2.307-.022-3.427h5.581V88.5a7,7,0,0,1-.879-.505,8.3,8.3,0,0,1-1.472-1.186h0a8.661,8.661,0,0,1-1.889-2.834,8.845,8.845,0,0,1-.659-3.318,8.721,8.721,0,0,1,2.483-6.108l.066-.066a8.661,8.661,0,0,1,2.834-1.889,8.79,8.79,0,0,1,6.679,0,8.73,8.73,0,0,1,2.768,1.846l.066.044a8.552,8.552,0,0,1,1.868,2.768l.022.066a8.79,8.79,0,0,1,0,6.679,9.051,9.051,0,0,1-1.824,2.768l-.066.066a9.106,9.106,0,0,1-1.406,1.142,5.945,5.945,0,0,1-.813.461v15.424a3.868,3.868,0,0,1-1.142,2.746,3.907,3.907,0,0,1-2.746,1.142ZM68.4,41.239a8.79,8.79,0,0,0,6.679,0,8.4,8.4,0,0,0,2.746-1.846l.066-.044a7.889,7.889,0,0,0,1.186-1.494,9.14,9.14,0,0,0,.505-.923H93.442V48.907a28.879,28.879,0,0,1,7.778-2.79V33.044a3.9,3.9,0,0,0-3.889-3.889H79.447a7.37,7.37,0,0,0-.461-.791,8.5,8.5,0,0,0-1.055-1.3L77.865,27a8.661,8.661,0,0,0-2.834-1.889,8.872,8.872,0,0,0-3.34-.659,8.6,8.6,0,0,0-3.274.637l-.066.022A8.9,8.9,0,0,0,65.517,27a8.661,8.661,0,0,0-1.889,2.834,8.872,8.872,0,0,0-.659,3.34,9.046,9.046,0,0,0,.659,3.34,8.661,8.661,0,0,0,1.889,2.834A9.612,9.612,0,0,0,68.4,41.239Zm44.513-24.7V46.556A24.146,24.146,0,0,1,120.4,50.2l.264.2c0-.066.022-.132.022-.2V16.544c.286-.154.571-.308.857-.483a8.148,8.148,0,0,0,1.428-1.142,8.718,8.718,0,0,0,2.549-6.174,8.688,8.688,0,0,0-.637-3.274L124.86,5.4a8.9,8.9,0,0,0-1.889-2.834A8.661,8.661,0,0,0,120.137.681,8.872,8.872,0,0,0,116.8.022a9.046,9.046,0,0,0-3.34.659A8.684,8.684,0,0,0,108.734,5.4a8.872,8.872,0,0,0-.659,3.34,8.688,8.688,0,0,0,.637,3.274l.022.066a8.9,8.9,0,0,0,1.889,2.834,8.576,8.576,0,0,0,1.384,1.121l.044.022c.286.176.549.33.857.483Zm21.246-7.382v43.9a26.6,26.6,0,0,1,3.318-2.856,23.288,23.288,0,0,1,4.46-2.549V13.029h25.376c.132.22.264.439.417.659a8.927,8.927,0,0,0,1.011,1.208,8.661,8.661,0,0,0,2.834,1.889,8.872,8.872,0,0,0,3.34.659,8.958,8.958,0,0,0,3.34-.659,8.684,8.684,0,0,0,4.724-4.724,8.872,8.872,0,0,0,.659-3.34,9.046,9.046,0,0,0-.659-3.34,8.661,8.661,0,0,0-1.889-2.834A9.344,9.344,0,0,0,178.206.659,8.845,8.845,0,0,0,174.888,0a8.688,8.688,0,0,0-3.274.637l-.066.022a8.9,8.9,0,0,0-2.834,1.889,8.83,8.83,0,0,0-1.846,2.7H138.043A3.868,3.868,0,0,0,135.3,6.394a3.96,3.96,0,0,0-1.142,2.768Zm18.763,30.474v6.02a22.1,22.1,0,0,1,2.395.242,26.489,26.489,0,0,1,5.383,1.362V43.546h11.469a6.994,6.994,0,0,0,.505.879,8.3,8.3,0,0,0,1.186,1.472h0a8.661,8.661,0,0,0,2.834,1.889,8.845,8.845,0,0,0,3.318.659,8.721,8.721,0,0,0,6.108-2.483l.066-.066a8.661,8.661,0,0,0,1.889-2.834,8.79,8.79,0,0,0,0-6.679,8.731,8.731,0,0,0-1.846-2.768l-.044-.066a8.552,8.552,0,0,0-2.768-1.868l-.066-.022a8.79,8.79,0,0,0-6.679,0,9.051,9.051,0,0,0-2.768,1.824l-.066.066a9.1,9.1,0,0,0-1.142,1.406,5.945,5.945,0,0,0-.461.813H156.806a3.868,3.868,0,0,0-2.746,1.142,3.779,3.779,0,0,0-1.143,2.724ZM41.239,77.337a8.79,8.79,0,0,1,0,6.679,8.4,8.4,0,0,1-1.846,2.746l-.044.066a7.889,7.889,0,0,1-1.494,1.186,9.14,9.14,0,0,1-.923.505v13.864H51.324v.681c0,.527.022,1.077.044,1.648a1.429,1.429,0,0,1-.593,1.274,50.13,50.13,0,0,0-5.119,4.174H33.088a3.9,3.9,0,0,1-3.889-3.889V88.389a7.369,7.369,0,0,1-.791-.461,8.5,8.5,0,0,1-1.3-1.055l-.066-.066a8.661,8.661,0,0,1-1.889-2.834,8.872,8.872,0,0,1-.659-3.34,8.688,8.688,0,0,1,.637-3.274l.022-.066a8.9,8.9,0,0,1,1.889-2.834A8.661,8.661,0,0,1,29.88,72.57a8.872,8.872,0,0,1,3.34-.659,9.046,9.046,0,0,1,3.34.659,8.661,8.661,0,0,1,2.834,1.889,10.079,10.079,0,0,1,1.846,2.878Zm-24.7,44.491H37.2c-.352.791-.659,1.6-.945,2.395a29.372,29.372,0,0,0-1.318,5.361H16.544c-.154.286-.308.571-.483.857a8.147,8.147,0,0,1-1.142,1.428,8.549,8.549,0,0,1-2.834,1.889,8.872,8.872,0,0,1-3.34.659,8.688,8.688,0,0,1-3.274-.637l-.066-.022a8.9,8.9,0,0,1-2.834-1.889,8.661,8.661,0,0,1-1.889-2.834,8.872,8.872,0,0,1-.659-3.34,9.046,9.046,0,0,1,.659-3.34A8.684,8.684,0,0,1,5.4,117.632a8.872,8.872,0,0,1,3.34-.659,8.688,8.688,0,0,1,3.274.637l.066.022a8.9,8.9,0,0,1,2.834,1.889,8.575,8.575,0,0,1,1.121,1.384l.044.066.461.857ZM9.162,143.1h26.87a32.839,32.839,0,0,0,3.581,7.668v.022l.044.088H13.029V176.25c.22.132.439.264.659.417a8.926,8.926,0,0,1,1.208,1.011,8.661,8.661,0,0,1,1.889,2.834,8.872,8.872,0,0,1,.659,3.34,8.958,8.958,0,0,1-.659,3.34,8.9,8.9,0,0,1-1.889,2.834,8.661,8.661,0,0,1-2.834,1.889,8.872,8.872,0,0,1-3.34.659,9.046,9.046,0,0,1-3.34-.659,8.661,8.661,0,0,1-2.834-1.889,9.9,9.9,0,0,1-1.889-2.878A8.872,8.872,0,0,1,0,183.808a8.688,8.688,0,0,1,.637-3.274l.022-.066a8.9,8.9,0,0,1,1.889-2.834,8.83,8.83,0,0,1,2.7-1.846V146.963a3.868,3.868,0,0,1,1.142-2.746A4.037,4.037,0,0,1,9.162,143.1Zm30.474,18.763h7.25a32.112,32.112,0,0,0-.417,4.284,30.7,30.7,0,0,0,.066,3.493h-3.01v11.469a6.992,6.992,0,0,1,.879.505,8.3,8.3,0,0,1,1.472,1.186h0a8.661,8.661,0,0,1,1.889,2.834,8.79,8.79,0,0,1,0,6.679,9.051,9.051,0,0,1-1.824,2.768l-.066.066a8.661,8.661,0,0,1-2.834,1.889,8.79,8.79,0,0,1-6.679,0,8.73,8.73,0,0,1-2.768-1.846l-.066-.044a8.552,8.552,0,0,1-1.868-2.768l-.022-.066a8.79,8.79,0,0,1,0-6.679,9.051,9.051,0,0,1,1.824-2.768l.066-.066a9.1,9.1,0,0,1,1.406-1.142,5.945,5.945,0,0,1,.813-.461V165.77a3.868,3.868,0,0,1,1.142-2.746,3.714,3.714,0,0,1,2.746-1.164Zm105.438,91.575V222.7a22.678,22.678,0,0,1-7.712-4.2l-.044-.044v35c-.286.154-.571.308-.857.483a8.148,8.148,0,0,0-1.428,1.142,8.718,8.718,0,0,0-2.549,6.174,8.688,8.688,0,0,0,.637,3.274l.022.066a8.9,8.9,0,0,0,1.889,2.834,8.66,8.66,0,0,0,2.834,1.889,8.872,8.872,0,0,0,3.34.659,9.046,9.046,0,0,0,3.34-.659,8.685,8.685,0,0,0,4.724-4.724,8.872,8.872,0,0,0,.659-3.34,8.688,8.688,0,0,0-.637-3.274l-.022-.066a8.9,8.9,0,0,0-1.889-2.834A8.576,8.576,0,0,0,146,253.961l-.066-.044c-.286-.176-.571-.33-.857-.483Zm-21.268,7.382V216.523a26.179,26.179,0,0,1-2.9,2.549,24.08,24.08,0,0,1-4.878,2.878v35.022H90.652c-.132-.22-.264-.439-.417-.659a8.927,8.927,0,0,0-1.011-1.208,8.661,8.661,0,0,0-2.834-1.889,8.743,8.743,0,0,0-9.513,1.889,8.661,8.661,0,0,0-1.889,2.834,8.872,8.872,0,0,0-.659,3.34,9.046,9.046,0,0,0,.659,3.34,8.685,8.685,0,0,0,4.724,4.724,8.872,8.872,0,0,0,3.34.659,8.688,8.688,0,0,0,3.274-.637l.066-.022a8.9,8.9,0,0,0,2.834-1.889,8.829,8.829,0,0,0,1.846-2.7H119.9a3.868,3.868,0,0,0,2.746-1.142,3.977,3.977,0,0,0,1.164-2.79Zm-18.763-30.474v-6.394a26.708,26.708,0,0,1-5.1-.769c-.9-.22-1.8-.505-2.68-.813v4.109H85.8a7,7,0,0,0-.505-.879,8.3,8.3,0,0,0-1.186-1.472h0a8.661,8.661,0,0,0-2.834-1.889,8.845,8.845,0,0,0-3.318-.659,8.721,8.721,0,0,0-6.108,2.483l-.066.044a8.661,8.661,0,0,0-1.889,2.834,8.79,8.79,0,0,0,0,6.679,8.73,8.73,0,0,0,1.846,2.768l.044.066a8.552,8.552,0,0,0,2.768,1.868l.066.022a8.872,8.872,0,0,0,3.34.659,8.721,8.721,0,0,0,6.108-2.483l.066-.066a9.106,9.106,0,0,0,1.142-1.406,5.944,5.944,0,0,0,.461-.813h15.424a3.9,3.9,0,0,0,3.889-3.889Z" fill="#fff"/>
</svg>
