<svg id="ai-w" xmlns="http://www.w3.org/2000/svg" width="272.305" height="280.617" viewBox="0 0 272.305 280.617">
  <path id="Path_1" data-name="Path 1" d="M197.019,237.733a9.135,9.135,0,0,0-6.942,0,8.729,8.729,0,0,0-2.854,1.918l-.068.046a8.2,8.2,0,0,0-1.233,1.553,9.5,9.5,0,0,0-.525.959H170.987V229.7a31.148,31.148,0,0,1-6.873,2.283c-.411.091-.8.16-1.21.228v14.021a4.054,4.054,0,0,0,4.042,4.042h18.588a7.659,7.659,0,0,0,.48.822,8.834,8.834,0,0,0,1.1,1.347l.068.068a9,9,0,0,0,2.946,1.964,9.221,9.221,0,0,0,3.471.685,8.943,8.943,0,0,0,3.4-.662l.069-.023a9.247,9.247,0,0,0,2.946-1.964,9,9,0,0,0,1.964-2.946,9.221,9.221,0,0,0,.685-3.471,9.4,9.4,0,0,0-.685-3.471,9,9,0,0,0-1.964-2.946,10.075,10.075,0,0,0-2.991-1.941ZM131.14,152.1h-16.9l-2.42,7.947H96.614l18.154-48.227h16.3l18.085,48.227h-15.6l-2.42-7.947Zm-3.151-10.458-5.275-17.332-5.3,17.332Zm25.37-29.845h14.957v48.227H153.359V111.8ZM141.964,62.362a26.4,26.4,0,0,0-6.736,7.284,1.055,1.055,0,0,1-.388.388,1.342,1.342,0,0,1-1.827-.388,26.4,26.4,0,0,0-6.736-7.284,21.576,21.576,0,0,0-8.449-3.722h-.046a23,23,0,0,0-8.654-.091,26.075,26.075,0,0,0-8.495,3.128,27.4,27.4,0,0,0-6.85,5.686,23.915,23.915,0,0,0-4.361,7.33h0c-.16.411-.3.845-.434,1.3-.114.411-.251.868-.343,1.324a1.3,1.3,0,0,1-1.256,1.05,24.966,24.966,0,0,0-8.928,3.243,30.693,30.693,0,0,0-7.855,6.828,34.444,34.444,0,0,0-5.572,9.728,36.1,36.1,0,0,0-2.215,11.189c-.023.525-.023,1.028-.023,1.553,0,.48.023.982.023,1.507a1.337,1.337,0,0,1-.548,1.165,47.526,47.526,0,0,0-5.069,4.179,37.311,37.311,0,0,0-4.042,4.59,30.021,30.021,0,0,0-4.224,7.992,27.218,27.218,0,0,0-.388,16.669,30.284,30.284,0,0,0,3.494,7.7h0a35.568,35.568,0,0,0,2.923,4.042,38.836,38.836,0,0,0,3.562,3.7,1.361,1.361,0,0,1,.411,1.233,30.9,30.9,0,0,0-.617,5.138,31.591,31.591,0,0,0,.274,5.115,30.787,30.787,0,0,0,2.58,8.677,32.8,32.8,0,0,0,5.069,7.81,33.582,33.582,0,0,0,6.531,5.846,31.209,31.209,0,0,0,7.535,3.813,27.242,27.242,0,0,0,3.562.936,21.948,21.948,0,0,0,3.4.411,1.319,1.319,0,0,1,1.324,1.05,22.722,22.722,0,0,0,3.2,7.581,26.2,26.2,0,0,0,5.846,6.348,26.669,26.669,0,0,0,9.819,4.818,23.013,23.013,0,0,0,10.367.274,22.107,22.107,0,0,0,8.906-4.065,26.993,26.993,0,0,0,6.919-7.924,1.194,1.194,0,0,1,.525-.48,1.321,1.321,0,0,1,1.781.548,24.432,24.432,0,0,0,5.891,7.353,21.332,21.332,0,0,0,7.9,4.11,23.4,23.4,0,0,0,10.961.228,28.479,28.479,0,0,0,10.847-4.818,27.807,27.807,0,0,0,6.554-6.531,23.674,23.674,0,0,0,3.676-7.741,1.31,1.31,0,0,1,1.073-1.073,24.994,24.994,0,0,0,9.7-4.065,31.541,31.541,0,0,0,8.061-8.084,34.865,34.865,0,0,0,4.818-10.276,36.461,36.461,0,0,0,1.324-11.417,1.271,1.271,0,0,1,.571-1.187,45.982,45.982,0,0,0,5.252-4.2,35.731,35.731,0,0,0,4.156-4.681h0a29.369,29.369,0,0,0,4.11-7.65,27.394,27.394,0,0,0,1.553-8.243,28.2,28.2,0,0,0-.936-7.924,30.294,30.294,0,0,0-3.151-7.558l-.046-.046a35.364,35.364,0,0,0-3.174-4.544,37.592,37.592,0,0,0-3.973-4.133,1.341,1.341,0,0,1-.434-1.256,30.461,30.461,0,0,0,.594-4.7,31.574,31.574,0,0,0-.137-4.658,30.477,30.477,0,0,0-2.42-9,33.212,33.212,0,0,0-5.069-8.106,34.652,34.652,0,0,0-6.645-6.051,30.541,30.541,0,0,0-7.627-3.9l-.068-.023a25.7,25.7,0,0,0-4.2-1.05h-.046a22.541,22.541,0,0,0-4.087-.3,1.324,1.324,0,0,1-1.37-1,22.48,22.48,0,0,0-.868-2.74A26.06,26.06,0,0,0,177.5,71.61a24.973,24.973,0,0,0-4.75-6.188,27.82,27.82,0,0,0-6.531-4.635A25.453,25.453,0,0,0,158.36,58.3a23,23,0,0,0-7.9.228,23.858,23.858,0,0,0-8.495,3.836ZM179.3,88.074a1.358,1.358,0,0,1,1.187-.936,12.613,12.613,0,0,1,2.923.137,18.187,18.187,0,0,1,3.014.754,22.079,22.079,0,0,1,5.549,2.854,24.808,24.808,0,0,1,4.8,4.384l.023.046a23.966,23.966,0,0,1,3.676,5.869A21.7,21.7,0,0,1,202.2,107.6a21.412,21.412,0,0,1-.023,4.681,20.95,20.95,0,0,1-1.028,4.544l-.023.091a4.519,4.519,0,0,0,0,2.854,4.452,4.452,0,0,0,1.758,2.283l.069.046a28.881,28.881,0,0,1,4.247,3.859,26.334,26.334,0,0,1,3.288,4.453,21.191,21.191,0,0,1,2.261,5.321,18.045,18.045,0,0,1-.411,11.029,20.976,20.976,0,0,1-2.809,5.184l-.023.023a27.234,27.234,0,0,1-4.2,4.476,39.135,39.135,0,0,1-5.572,3.928l-.068.046a4.3,4.3,0,0,0-1.827,2.055,4.539,4.539,0,0,0-.3,2.695l.023.183a28.159,28.159,0,0,1-.48,9.865,25.734,25.734,0,0,1-3.882,8.814,23.156,23.156,0,0,1-4.567,4.932,17.377,17.377,0,0,1-5.458,2.991h-.023a1.329,1.329,0,0,1-1.644-.868c-2.58-8.426-7.033-11.143-14.569-15.025l-.16-.091a4.4,4.4,0,0,0-3.22-.228,4.089,4.089,0,0,0-2.443,2.055l-.068.137a4.289,4.289,0,0,0,1.9,5.709c6.3,3.22,10.961,5.663,10.892,13.564a13.278,13.278,0,0,1-1.987,6.691,19.724,19.724,0,0,1-5.343,5.686,19.964,19.964,0,0,1-7.261,3.334,14.926,14.926,0,0,1-7.307-.046,13.314,13.314,0,0,1-8.289-6.965,36.433,36.433,0,0,1-3.22-9.865,1.006,1.006,0,0,1-.046-.365c0-1.644-1.279-2.717-2.946-3.2a7.817,7.817,0,0,0-2.306-.32,8.524,8.524,0,0,0-2.306.32c-1.644.5-2.923,1.576-2.923,3.2a1.541,1.541,0,0,1-.046.32,30.633,30.633,0,0,1-5.3,11.623A14.685,14.685,0,0,1,116,213.232a14.916,14.916,0,0,1-6.736-.228,18.607,18.607,0,0,1-6.417-3.2,17.19,17.19,0,0,1-4.567-5.321,13.234,13.234,0,0,1-1.667-6.28c0-8.312,5.024-11.1,11.669-14.5a4.289,4.289,0,0,0-3.836-7.673l-.069.023c-7.832,4-12.513,6.919-15.322,15.619a1.35,1.35,0,0,1-1.324.982,14.028,14.028,0,0,1-2.352-.274,15.354,15.354,0,0,1-2.283-.639,23.027,23.027,0,0,1-5.435-2.763,25.113,25.113,0,0,1-4.727-4.247,24.133,24.133,0,0,1-3.676-5.663,22.082,22.082,0,0,1-1.872-6.188v-.046a20.077,20.077,0,0,1-.091-4.978,21.552,21.552,0,0,1,1.073-4.909l.023-.068a4.472,4.472,0,0,0,.023-2.786l-.023-.046a4.457,4.457,0,0,0-1.713-2.283l-.046-.046a28.121,28.121,0,0,1-3.95-3.539,25.924,25.924,0,0,1-3.106-4.065,22.462,22.462,0,0,1-2.42-5.412,19.4,19.4,0,0,1-.776-5.617,18.294,18.294,0,0,1,1.05-5.869,21.544,21.544,0,0,1,2.946-5.5,27.675,27.675,0,0,1,4.133-4.476,38.143,38.143,0,0,1,5.412-3.973,4.411,4.411,0,0,0,1.667-1.827l.023-.069A4.273,4.273,0,0,0,72,114.928a1.112,1.112,0,0,1-.023-.274v-.046c-.114-.8-.183-1.6-.228-2.375-.046-.845-.046-1.69-.023-2.512a27.027,27.027,0,0,1,1.621-8.335,25.5,25.5,0,0,1,4.11-7.239,21.478,21.478,0,0,1,4.658-4.27A16.786,16.786,0,0,1,87.343,87.5h0a1.329,1.329,0,0,1,1.644.868,21.911,21.911,0,0,0,6.6,10.458l.137.114a4.19,4.19,0,0,0,3.014,1.1,4.143,4.143,0,0,0,2.9-1.324l.068-.091a4.19,4.19,0,0,0,1.1-3.014,4.341,4.341,0,0,0-1.37-2.969,12.8,12.8,0,0,1-4.179-6.668,12.66,12.66,0,0,1,.137-8.38,15.091,15.091,0,0,1,2.923-4.841,18,18,0,0,1,4.476-3.7l.069-.046a17.62,17.62,0,0,1,5.549-2.1,14.415,14.415,0,0,1,5.595.023,14.268,14.268,0,0,1,7.421,4.293,24.937,24.937,0,0,1,5.138,8.746l.023.046c.48,1.484,2.032,2.352,3.859,2.695a10.448,10.448,0,0,0,2.535.16H135a9.626,9.626,0,0,0,2.466-.457c1.37-.457,2.443-1.187,2.695-2.124v-.525c0-2.649,1.576-5.458,3.745-7.764a17.242,17.242,0,0,1,8.221-5.047,14.562,14.562,0,0,1,5.069-.114,17.242,17.242,0,0,1,5.024,1.621l.137.046a18.725,18.725,0,0,1,4.407,3.106,16.978,16.978,0,0,1,3.2,4.156,12.873,12.873,0,0,1,1.484,8.038c-.365,2.535-.457,4.133-2.58,6.668l-.023.023a4.238,4.238,0,0,0-.982,3.106,4.19,4.19,0,0,0,1.416,2.809l.137.114a4.256,4.256,0,0,0,5.869-.48l.114-.16c2.192-2.6,2.9-4.521,3.9-7.81Zm50.145,111.754a9.135,9.135,0,0,1,0-6.942,8.729,8.729,0,0,1,1.918-2.854l.046-.069a8.2,8.2,0,0,1,1.553-1.233,9.5,9.5,0,0,1,.959-.525V173.8H216.2c.023-.936.023-1.872-.023-2.832a1.447,1.447,0,0,1,.639-1.347,49.959,49.959,0,0,0,5-3.9h16.121a4.054,4.054,0,0,1,4.042,4.042v18.588a7.654,7.654,0,0,1,.822.48,8.834,8.834,0,0,1,1.347,1.1l.068.068a9,9,0,0,1,1.964,2.946,9.221,9.221,0,0,1,.685,3.471,9.029,9.029,0,0,1-.662,3.4l-.023.068a9.247,9.247,0,0,1-1.964,2.946,9,9,0,0,1-2.946,1.964,9.221,9.221,0,0,1-3.471.685,9.4,9.4,0,0,1-3.471-.685,9,9,0,0,1-2.946-1.964,10.075,10.075,0,0,1-1.941-2.991Zm25.666-46.241H231.02c.411-.891.776-1.781,1.1-2.695a28.715,28.715,0,0,0,1.37-5.389h21.625c.16-.3.32-.594.5-.891a8.467,8.467,0,0,1,1.187-1.484,8.885,8.885,0,0,1,2.946-1.964,9.221,9.221,0,0,1,3.471-.685,9.029,9.029,0,0,1,3.4.662l.069.023a9.248,9.248,0,0,1,2.946,1.964,9,9,0,0,1,1.964,2.946,9.221,9.221,0,0,1,.685,3.471,9.4,9.4,0,0,1-.685,3.471,9.026,9.026,0,0,1-4.909,4.909,9.221,9.221,0,0,1-3.471.685,9.029,9.029,0,0,1-3.4-.662l-.069-.023a9.247,9.247,0,0,1-2.946-1.964,8.914,8.914,0,0,1-1.165-1.439l-.046-.069c-.16-.274-.32-.571-.48-.868Zm7.673-22.1h-30.3a35.538,35.538,0,0,0-3.243-7.421l-.046-.068c-.114-.206-.228-.388-.343-.594h29.914V97.025c-.228-.137-.457-.274-.685-.434a9.282,9.282,0,0,1-1.256-1.05A9,9,0,0,1,254.86,92.6a9.087,9.087,0,0,1,1.964-9.887,9,9,0,0,1,2.946-1.964,9.221,9.221,0,0,1,3.471-.685,9.4,9.4,0,0,1,3.471.685,9.026,9.026,0,0,1,4.909,4.909,9.221,9.221,0,0,1,.685,3.471,9.029,9.029,0,0,1-.662,3.4l-.023.068a9.247,9.247,0,0,1-1.964,2.946,9.177,9.177,0,0,1-2.809,1.918v29.959a4.093,4.093,0,0,1-4.065,4.065Zm-31.672-19.5H220.79a33.806,33.806,0,0,0,.5-4.521c.046-1.21.046-2.4-.023-3.562h5.8V91.979a7.271,7.271,0,0,1-.913-.525,8.627,8.627,0,0,1-1.53-1.233h0a9,9,0,0,1-1.964-2.946,9.193,9.193,0,0,1-.685-3.448,9.064,9.064,0,0,1,2.58-6.348l.069-.069a9,9,0,0,1,2.946-1.964,9.135,9.135,0,0,1,6.942,0,9.074,9.074,0,0,1,2.877,1.918l.068.046a8.888,8.888,0,0,1,1.941,2.877l.023.069a9.135,9.135,0,0,1,0,6.942,9.407,9.407,0,0,1-1.9,2.877l-.069.069A9.464,9.464,0,0,1,236,91.431a6.177,6.177,0,0,1-.845.48v16.03a4.02,4.02,0,0,1-1.187,2.854,4.061,4.061,0,0,1-2.854,1.187ZM71.085,42.861a9.135,9.135,0,0,0,6.942,0,8.729,8.729,0,0,0,2.854-1.918l.069-.046a8.2,8.2,0,0,0,1.233-1.553,9.5,9.5,0,0,0,.525-.959H97.117V50.83a30.015,30.015,0,0,1,8.084-2.9V34.344a4.054,4.054,0,0,0-4.042-4.042H82.571a7.658,7.658,0,0,0-.48-.822A8.835,8.835,0,0,0,81,28.133l-.069-.069A9,9,0,0,0,77.981,26.1a9.221,9.221,0,0,0-3.471-.685,8.943,8.943,0,0,0-3.4.662l-.069.023a9.247,9.247,0,0,0-2.946,1.964A9,9,0,0,0,66.13,31.01a9.221,9.221,0,0,0-.685,3.471,9.4,9.4,0,0,0,.685,3.471A9,9,0,0,0,68.093,40.9a9.99,9.99,0,0,0,2.991,1.964Zm46.263-25.666V48.387a25.1,25.1,0,0,1,7.787,3.791l.274.206c0-.069.023-.137.023-.206V17.195c.3-.16.594-.32.891-.5a8.468,8.468,0,0,0,1.484-1.187,9.06,9.06,0,0,0,2.649-6.417,9.029,9.029,0,0,0-.662-3.4l-.023-.069a9.248,9.248,0,0,0-1.964-2.946A9,9,0,0,0,124.861.708,9.221,9.221,0,0,0,121.39.023a9.4,9.4,0,0,0-3.471.685,9.026,9.026,0,0,0-4.909,4.909,9.221,9.221,0,0,0-.685,3.471,9.029,9.029,0,0,0,.662,3.4l.023.069a9.247,9.247,0,0,0,1.964,2.946,8.913,8.913,0,0,0,1.439,1.165l.046.023c.3.183.571.343.891.5ZM139.43,9.522V55.146a27.647,27.647,0,0,1,3.448-2.969,24.2,24.2,0,0,1,4.635-2.649V13.541h26.374c.137.228.274.457.434.685a9.278,9.278,0,0,0,1.05,1.256,9,9,0,0,0,2.946,1.964,9.221,9.221,0,0,0,3.471.685,9.31,9.31,0,0,0,3.471-.685,9.026,9.026,0,0,0,4.909-4.909,9.221,9.221,0,0,0,.685-3.471,9.4,9.4,0,0,0-.685-3.471A9,9,0,0,0,188.2,2.649,9.712,9.712,0,0,0,185.213.685,9.193,9.193,0,0,0,181.765,0a9.03,9.03,0,0,0-3.4.662l-.068.023a9.247,9.247,0,0,0-2.946,1.964,9.177,9.177,0,0,0-1.918,2.809H143.471a4.02,4.02,0,0,0-2.854,1.187,4.115,4.115,0,0,0-1.187,2.877Zm19.5,31.672v6.257a22.97,22.97,0,0,1,2.489.251,27.53,27.53,0,0,1,5.595,1.416V45.259h11.92a7.269,7.269,0,0,0,.525.913,8.627,8.627,0,0,0,1.233,1.53h0a9,9,0,0,0,2.946,1.964,9.193,9.193,0,0,0,3.448.685,9.064,9.064,0,0,0,6.348-2.58l.068-.069a9,9,0,0,0,1.964-2.946,9.135,9.135,0,0,0,0-6.942,9.074,9.074,0,0,0-1.918-2.877l-.046-.069a8.888,8.888,0,0,0-2.877-1.941l-.069-.023a9.135,9.135,0,0,0-6.942,0,9.407,9.407,0,0,0-2.877,1.9l-.069.069a9.462,9.462,0,0,0-1.187,1.461,6.178,6.178,0,0,0-.48.845h-16.03a4.021,4.021,0,0,0-2.854,1.187,3.927,3.927,0,0,0-1.187,2.832ZM42.861,80.379a9.135,9.135,0,0,1,0,6.942,8.729,8.729,0,0,1-1.918,2.854l-.046.069a8.2,8.2,0,0,1-1.553,1.233,9.5,9.5,0,0,1-.959.525V106.41H53.342v.708c0,.548.023,1.119.046,1.713a1.485,1.485,0,0,1-.617,1.324,52.1,52.1,0,0,0-5.321,4.339H34.389a4.054,4.054,0,0,1-4.042-4.042V91.865a7.658,7.658,0,0,1-.822-.48,8.834,8.834,0,0,1-1.347-1.1l-.069-.068a9,9,0,0,1-1.964-2.946,9.221,9.221,0,0,1-.685-3.471,9.03,9.03,0,0,1,.662-3.4l.023-.068a9.247,9.247,0,0,1,1.964-2.946,9,9,0,0,1,2.946-1.964,9.221,9.221,0,0,1,3.471-.685A9.4,9.4,0,0,1,38,75.423a9,9,0,0,1,2.946,1.964,10.475,10.475,0,0,1,1.918,2.991ZM17.195,126.619H38.659c-.365.822-.685,1.667-.982,2.489a30.527,30.527,0,0,0-1.37,5.572H17.195c-.16.3-.32.594-.5.891a8.468,8.468,0,0,1-1.187,1.484,8.885,8.885,0,0,1-2.946,1.964,9.221,9.221,0,0,1-3.471.685,9.029,9.029,0,0,1-3.4-.662l-.069-.023a9.247,9.247,0,0,1-2.946-1.964,9,9,0,0,1-1.964-2.946,9.221,9.221,0,0,1-.685-3.471,9.4,9.4,0,0,1,.685-3.471,9.026,9.026,0,0,1,4.909-4.909,9.221,9.221,0,0,1,3.471-.685,9.029,9.029,0,0,1,3.4.662l.069.023a9.247,9.247,0,0,1,2.946,1.964,8.913,8.913,0,0,1,1.165,1.439l.046.069.48.891Zm-7.673,22.1H37.449a34.13,34.13,0,0,0,3.722,7.969v.023l.046.091H13.541v26.374c.228.137.457.274.685.434a9.278,9.278,0,0,1,1.256,1.05,9,9,0,0,1,1.964,2.946,9.221,9.221,0,0,1,.685,3.471,9.31,9.31,0,0,1-.685,3.471,9.247,9.247,0,0,1-1.964,2.946,9,9,0,0,1-2.946,1.964,9.221,9.221,0,0,1-3.471.685,9.4,9.4,0,0,1-3.471-.685A9,9,0,0,1,2.649,197.5a10.284,10.284,0,0,1-1.964-2.991A9.221,9.221,0,0,1,0,191.036a9.03,9.03,0,0,1,.662-3.4l.023-.068a9.247,9.247,0,0,1,1.964-2.946A9.178,9.178,0,0,1,5.458,182.7V152.742a4.02,4.02,0,0,1,1.187-2.854,4.2,4.2,0,0,1,2.877-1.165Zm31.672,19.5H48.73a33.374,33.374,0,0,0-.434,4.453,31.91,31.91,0,0,0,.069,3.631H45.236v11.92a7.269,7.269,0,0,1,.913.525,8.627,8.627,0,0,1,1.53,1.233h0a9,9,0,0,1,1.964,2.946,9.135,9.135,0,0,1,0,6.942,9.407,9.407,0,0,1-1.9,2.877l-.069.068a9,9,0,0,1-2.946,1.964,9.135,9.135,0,0,1-6.942,0,9.074,9.074,0,0,1-2.877-1.918l-.069-.046a8.888,8.888,0,0,1-1.941-2.877l-.023-.068a9.135,9.135,0,0,1,0-6.942,9.407,9.407,0,0,1,1.9-2.877l.069-.068a9.463,9.463,0,0,1,1.461-1.187,6.178,6.178,0,0,1,.845-.48v-16.03a4.02,4.02,0,0,1,1.187-2.854,3.86,3.86,0,0,1,2.854-1.21ZM150.778,263.4V231.454a23.57,23.57,0,0,1-8.015-4.361l-.046-.046v36.376c-.3.16-.594.32-.891.5a8.47,8.47,0,0,0-1.484,1.187,9.06,9.06,0,0,0-2.649,6.417,9.029,9.029,0,0,0,.662,3.4l.023.069a9.248,9.248,0,0,0,1.964,2.946,9,9,0,0,0,2.946,1.964,9.221,9.221,0,0,0,3.471.685,9.4,9.4,0,0,0,3.471-.685A9.026,9.026,0,0,0,155.14,275a9.221,9.221,0,0,0,.685-3.471,9.03,9.03,0,0,0-.662-3.4l-.023-.068a9.248,9.248,0,0,0-1.964-2.946,8.914,8.914,0,0,0-1.439-1.165l-.068-.046c-.3-.183-.594-.343-.891-.5Zm-22.1,7.673V225.037a27.209,27.209,0,0,1-3.014,2.649,25.027,25.027,0,0,1-5.069,2.991v36.4H94.217c-.137-.228-.274-.457-.434-.685a9.278,9.278,0,0,0-1.05-1.256,9,9,0,0,0-2.946-1.964,9.087,9.087,0,0,0-9.887,1.964,9,9,0,0,0-1.964,2.946,9.221,9.221,0,0,0-.685,3.471,9.4,9.4,0,0,0,.685,3.471,9.026,9.026,0,0,0,4.909,4.909,9.221,9.221,0,0,0,3.471.685,9.029,9.029,0,0,0,3.4-.662l.068-.023a9.247,9.247,0,0,0,2.946-1.964,9.177,9.177,0,0,0,1.918-2.809H124.61a4.02,4.02,0,0,0,2.854-1.187,4.134,4.134,0,0,0,1.21-2.9Zm-19.5-31.672v-6.645a27.76,27.76,0,0,1-5.3-.8c-.936-.228-1.872-.525-2.786-.845v4.27H89.17a7.271,7.271,0,0,0-.525-.913,8.627,8.627,0,0,0-1.233-1.53h0a9,9,0,0,0-2.946-1.964,9.193,9.193,0,0,0-3.448-.685,9.064,9.064,0,0,0-6.348,2.58l-.069.046a9,9,0,0,0-1.964,2.946,9.135,9.135,0,0,0,0,6.942,9.074,9.074,0,0,0,1.918,2.877l.046.069a8.888,8.888,0,0,0,2.877,1.941l.069.023a9.221,9.221,0,0,0,3.471.685,9.064,9.064,0,0,0,6.348-2.58l.069-.068a9.464,9.464,0,0,0,1.187-1.461,6.176,6.176,0,0,0,.48-.845h16.03a4.054,4.054,0,0,0,4.042-4.042Z" fill="#4f565e"/>
</svg>
