<svg xmlns="http://www.w3.org/2000/svg" width="274.625" height="406.667" viewBox="0 0 274.625 406.667">
  <g id="fg-wh" transform="translate(-4323 -1109)">
    <g id="fg" transform="translate(4323 1109)">
      <path id="Path_14" data-name="Path 14" d="M172.53,231.2a60.416,60.416,0,0,1,60.417-60.41h8.739c.238.008.5-.008.746-.008a67.779,67.779,0,1,1,0,135.558c-.246,0-.508-.008-.754-.008l-8.731.008a60.428,60.428,0,0,1-60.417-60.418Z" transform="translate(-35.591 -35.23)" fill="#4f565e"/>
      <path id="Path_15" data-name="Path 15" d="M0,409.361A67.8,67.8,0,0,1,67.783,341.57l69.156.008v67.085c0,37.82-31,68.466-68.823,68.466C30.693,477.128,0,446.785,0,409.361Z" transform="translate(0 -70.461)" fill="rgba(79,86,94,0.19)"/>
      <path id="Path_16" data-name="Path 16" d="M172.53.008v135.55h69.156c.238-.008.5.008.746.008A67.783,67.783,0,0,0,242.432,0c-.246,0-.508.008-.754.008Z" transform="translate(-35.591)" fill="rgba(79,86,94,0.8)"/>
      <path id="Path_17" data-name="Path 17" d="M0,67.777A67.788,67.788,0,0,0,67.783,135.56h69.156V.01H67.775A67.778,67.778,0,0,0,0,67.777Z" transform="translate(0 -0.002)" fill="rgba(79,86,94,0.67)"/>
      <path id="Path_18" data-name="Path 18" d="M0,238.567A67.788,67.788,0,0,0,67.783,306.35h69.156V170.8H67.775A67.778,67.778,0,0,0,0,238.567Z" transform="translate(0 -35.234)" fill="rgba(79,86,94,0.51)"/>
    </g>
  </g>
</svg>
