<svg xmlns="http://www.w3.org/2000/svg" width="360.997" height="351.97" viewBox="0 0 360.997 351.97">
  <g id="ill-dark" transform="translate(-6066.726 -1314.42)">
    <path id="Exclusion_3" data-name="Exclusion 3" d="M270.428,351.97H90.57A90.146,90.146,0,0,1,39.931,336.5,90.835,90.835,0,0,1,7.117,296.654,90,90,0,0,1,0,261.4V90.57A90.146,90.146,0,0,1,15.468,39.931,90.834,90.834,0,0,1,55.316,7.117,90,90,0,0,1,90.57,0H270.428a90.146,90.146,0,0,1,50.638,15.468A90.834,90.834,0,0,1,353.88,55.316,90,90,0,0,1,361,90.57V261.4a90.148,90.148,0,0,1-15.468,50.639,90.834,90.834,0,0,1-39.848,32.814A90,90,0,0,1,270.428,351.97ZM118.989,211.227h55.945l12.352,35.835a2.231,2.231,0,0,0,2.172,1.708,2.254,2.254,0,0,0,.249-.014h31.48a1.645,1.645,0,0,0,1.4-.522,2.157,2.157,0,0,0,.056-1.9L167.671,91.342c-.172-.812-.807-1.207-1.941-1.207h-38.5a1.4,1.4,0,0,0-.424,0,1.482,1.482,0,0,0-.989.581,1.5,1.5,0,0,0-.282,1.112,52.7,52.7,0,0,1-.967,9.811c-.495,1.825-.984,3.487-1.454,4.941L74.678,246.1a2.394,2.394,0,0,0,.115,2.086,1.88,1.88,0,0,0,1.579.583H104.7c.053,0,.106,0,.159,0a2.81,2.81,0,0,0,2.749-2.186l11.378-35.355ZM240.554,128.4c-1.283,0-1.933.734-1.933,2.182V246.335c0,1.607.727,2.421,2.162,2.421h29.551c1.283,0,1.934-.815,1.934-2.421V130.579c0-1.468-.633-2.182-1.934-2.182Zm14.773-12.585h0c.275.012.554.019.829.019a18.47,18.47,0,0,0,13.041-5.347,19,19,0,0,0,5.208-13.806,18.6,18.6,0,0,0-4.94-13.411c-3.293-3.457-7.895-5.209-13.679-5.209-.149,0-.3-.005-.45-.005a18.63,18.63,0,0,0-12.961,5.215,17.791,17.791,0,0,0-5.45,13.411,19.271,19.271,0,0,0,5.082,13.806,17.667,17.667,0,0,0,12.619,5.343C254.859,115.827,255.095,115.822,255.327,115.813Zm-89.357,64.88H127.714c2.222-6.41,4.533-13.492,6.868-21.048,2.281-7.387,4.6-14.884,6.9-22.283a196.317,196.317,0,0,0,5.089-19.368h.24c.939,3.353,2.017,7.186,3.3,11.717,1.2,4.248,2.544,8.731,4,13.326l4.362,13.8c1.446,4.6,2.831,8.957,4.115,12.959,1.29,4.019,2.429,7.685,3.388,10.9Z" transform="translate(6066.726 1314.42)" fill="#fff"/>
  </g>
</svg>
