<svg xmlns="http://www.w3.org/2000/svg" width="360.997" height="351.97" viewBox="0 0 360.997 351.97">
  <path id="ill-w" d="M270.428,351.97H90.57A90.146,90.146,0,0,1,39.931,336.5,90.835,90.835,0,0,1,7.117,296.654,90,90,0,0,1,0,261.4V90.57A90.146,90.146,0,0,1,15.468,39.931,90.834,90.834,0,0,1,55.316,7.117,90,90,0,0,1,90.57,0H270.428a90.146,90.146,0,0,1,50.638,15.468A90.834,90.834,0,0,1,353.88,55.316,90,90,0,0,1,361,90.57V261.4a90.148,90.148,0,0,1-15.468,50.639,90.834,90.834,0,0,1-39.848,32.814A90,90,0,0,1,270.428,351.97ZM118.989,211.227h55.944l12.353,35.835a2.231,2.231,0,0,0,2.172,1.708,2.257,2.257,0,0,0,.249-.014h31.48a1.644,1.644,0,0,0,1.4-.522,2.157,2.157,0,0,0,.056-1.9L167.67,91.342c-.168-.8-.821-1.207-1.94-1.207h-38.5a1.39,1.39,0,0,0-.423,0,1.488,1.488,0,0,0-1.271,1.694,52.77,52.77,0,0,1-.967,9.811c-.495,1.825-.984,3.487-1.454,4.941L74.677,246.1a2.4,2.4,0,0,0,.116,2.086,1.881,1.881,0,0,0,1.579.583H104.7c.053,0,.106,0,.159,0a2.811,2.811,0,0,0,2.749-2.186l11.378-35.355ZM240.555,128.4c-1.283,0-1.934.734-1.934,2.182V246.335c0,1.607.727,2.421,2.162,2.421h29.552c1.283,0,1.933-.815,1.933-2.421V130.579c0-1.468-.632-2.182-1.933-2.182Zm14.773-12.585h0c.275.012.554.019.829.019a18.47,18.47,0,0,0,13.041-5.347,19,19,0,0,0,5.209-13.806,18.6,18.6,0,0,0-4.941-13.411c-3.293-3.457-7.895-5.209-13.679-5.209-.149,0-.3-.005-.45-.005a18.633,18.633,0,0,0-12.961,5.215,17.787,17.787,0,0,0-5.449,13.411,19.266,19.266,0,0,0,5.081,13.806,17.67,17.67,0,0,0,12.619,5.343C254.859,115.827,255.095,115.822,255.327,115.813Zm-89.358,64.88H127.714c2.227-6.426,4.538-13.507,6.867-21.048,2.275-7.362,4.6-14.859,6.9-22.283a196.061,196.061,0,0,0,5.089-19.368h.24c.925,3.309,2,7.141,3.3,11.717,1.207,4.275,2.552,8.758,4,13.326l4.362,13.8c1.433,4.557,2.818,8.917,4.115,12.959,1.28,3.988,2.42,7.655,3.387,10.9Z" fill="#4f565e"/>
</svg>
