<svg xmlns="http://www.w3.org/2000/svg" width="360.992" height="351.97" viewBox="0 0 360.992 351.97">
  <path id="ps-w" d="M270.372,351.97H90.62a90.2,90.2,0,0,1-50.667-15.476,90.885,90.885,0,0,1-32.832-39.87A90.053,90.053,0,0,1,0,261.35V90.62A90.2,90.2,0,0,1,15.477,39.954,90.885,90.885,0,0,1,55.347,7.121,90.053,90.053,0,0,1,90.62,0H270.372a90.2,90.2,0,0,1,50.667,15.477,90.885,90.885,0,0,1,32.832,39.87,90.053,90.053,0,0,1,7.121,35.273V261.35a90.2,90.2,0,0,1-15.477,50.667,90.884,90.884,0,0,1-39.87,32.832A90.053,90.053,0,0,1,270.372,351.97ZM211.951,214.709a1.17,1.17,0,0,0-.579.154,1.406,1.406,0,0,0-.607,1.334v26.149a3.141,3.141,0,0,0,1.7,2.906,65.231,65.231,0,0,0,15.377,4.846,99.33,99.33,0,0,0,19.534,1.944c.309,0,.619,0,.922,0,10.766,0,19.941-1.633,27.271-4.853a38.182,38.182,0,0,0,16.83-13.438,34.7,34.7,0,0,0,5.813-19.984,33.411,33.411,0,0,0-3.527-15.519,35.39,35.39,0,0,0-11.865-12.471,105.908,105.908,0,0,0-23.13-11.019,100.287,100.287,0,0,1-10.651-4.937,16.323,16.323,0,0,1-5.086-3.992,6.445,6.445,0,0,1-1.454-3.873,7.6,7.6,0,0,1,1.207-4.119,8.157,8.157,0,0,1,4.726-3.027,31.333,31.333,0,0,1,8.243-1.1c.278,0,.559,0,.835.011a76.512,76.512,0,0,1,16.831,1.94,56.429,56.429,0,0,1,14.411,5.086,2.348,2.348,0,0,0,2.1.013,1.626,1.626,0,0,0,.706-1.453V134.836a6.567,6.567,0,0,0-.24-1.813,2.218,2.218,0,0,0-1.453-1.333,49.1,49.1,0,0,0-12.98-3.527,118.28,118.28,0,0,0-17.663-1.33c-.326,0-.658,0-.988,0-10.607,0-19.568,1.792-26.636,5.325a36.86,36.86,0,0,0-15.744,13.805,34.693,34.693,0,0,0-5.093,18.213,33.544,33.544,0,0,0,3.527,15.377,37.15,37.15,0,0,0,11.385,12.7,88.944,88.944,0,0,0,21.43,10.9c7.4,2.705,12.374,5.055,14.784,6.983s3.633,3.968,3.633,6.06a6.85,6.85,0,0,1-3.992,6.292c-2.658,1.446-6.854,2.18-12.471,2.18a76.749,76.749,0,0,1-17.684-2.3,64.562,64.562,0,0,1-18.665-7.385A1.174,1.174,0,0,0,211.951,214.709ZM129.468,89.655c-4.464,0-9.066.04-13.677.12l-13.078.247q-1.668.031-3.277.057c-2.91.049-5.654.095-8.227.182-3.527.12-5.926.12-8.465.12-.964,0-1.453.57-1.453,1.693v154.75c0,1.294.554,1.933,1.693,1.954h28.829a1.774,1.774,0,0,0,.544,0,1.918,1.918,0,0,0,1.636-2.18V198.286c3.064,0,5.142.038,6.539.12s3.838.12,7.505.12c13.847,0,24.622-1.614,33.908-5.079a50.428,50.428,0,0,0,24.216-18.283c5.944-8.351,8.959-19.106,8.959-31.969a56.468,56.468,0,0,0-3.38-19.511,47.618,47.618,0,0,0-11.018-17.077,54.235,54.235,0,0,0-20.217-12.352C152.12,91.2,141.678,89.655,129.468,89.655Zm-9.805,80.5c-1.731,0-3.639-.081-5.671-.24v-50.47h.036c1.132-.164,3.211-.287,6.178-.367s6.42-.12,10.292-.12c.456-.014.919-.021,1.375-.021a44.745,44.745,0,0,1,16.26,3.047,22.466,22.466,0,0,1,10.525,8.6,24.464,24.464,0,0,1,3.526,13.318A30.6,30.6,0,0,1,161,152.756a18.545,18.545,0,0,1-3.539,6.663,26.058,26.058,0,0,1-12.352,7.971,56.754,56.754,0,0,1-17.317,2.765h-8.134Z" fill="#4f565e"/>
</svg>
