<svg xmlns="http://www.w3.org/2000/svg" width="360.992" height="351.968" viewBox="0 0 360.992 351.968">
  <g id="xd-dark" transform="translate(-5882.731 -1322.048)">
    <path id="Exclusion_1" data-name="Exclusion 1" d="M270.242,351.968H90.75a90.325,90.325,0,0,1-50.739-15.5A91.016,91.016,0,0,1,7.132,296.542,90.183,90.183,0,0,1,0,261.218V90.75A90.325,90.325,0,0,1,15.5,40.011,91.017,91.017,0,0,1,55.426,7.132,90.18,90.18,0,0,1,90.75,0H270.242a90.325,90.325,0,0,1,50.739,15.5A91.014,91.014,0,0,1,353.86,55.426a90.181,90.181,0,0,1,7.132,35.324V261.218a90.327,90.327,0,0,1-15.5,50.74,91.015,91.015,0,0,1-39.927,32.879A90.182,90.182,0,0,1,270.242,351.968Zm-3.963-225.958c-14.8,0-27.6,2.932-38.04,8.714a60.39,60.39,0,0,0-23.951,23.247,63.494,63.494,0,0,0-8.235,31.7c0,13.659,2.775,25.187,8.235,34.264A51.269,51.269,0,0,0,226.936,244.4a74.561,74.561,0,0,0,31.189,6.786c.384,0,.77,0,1.145-.009A131.675,131.675,0,0,0,282.5,249a120.446,120.446,0,0,0,24.458-7.263,2.492,2.492,0,0,0,1.451-2.423c-.162-2.558-.36-5.411-.606-8.721-.238-3.211-.359-6.226-.359-8.96V78.517a1.618,1.618,0,0,0,0-.366,1.288,1.288,0,0,0-1.458-1.085h-30.51c-.963,0-1.451.569-1.451,1.69V126.49c-.889-.077-1.7-.136-2.476-.192-.761-.055-1.475-.107-2.123-.167C268.133,126.011,267.061,126.011,266.279,126.011ZM55.215,90.162a1.733,1.733,0,0,0-1.3.585c-.325.4-.245.932.239,1.571l45.528,76.995L52.946,246.1a2.442,2.442,0,0,0-.36,1.7c.048.369.19.443.4.443a2.491,2.491,0,0,0,.26-.02,3.78,3.78,0,0,1,.422-.029H86.864c1.514,0,2.724-.118,3.389-1.607,3.532-6.274,7.035-12.673,10.412-19.02s6.829-12.81,10.292-19.253,6.841-12.955,10.053-19.379h.247c3.531,6.581,7.154,13.182,10.77,19.619s7.079,12.84,10.292,19.02c3.174,6.1,6.433,12.417,9.686,18.766.954,1.584,2.558,1.7,5.086,1.7h34.377a3.715,3.715,0,0,1,.589-.044c.109,0,.211,0,.3.007h.023c.076,0,.156.006.226.006.3,0,.473-.054.554-.336a2.463,2.463,0,0,0-.239-1.818L144.728,166.9l45.041-74.34-.021-.035a1.415,1.415,0,0,0,.308-1.669,1.4,1.4,0,0,0-1.259-.779,1.415,1.415,0,0,0-.26.024h-31.7a3.483,3.483,0,0,0-1.937.359,3.8,3.8,0,0,0-.972,1.578c-3.213,6.268-6.593,12.667-10.046,19.021-3.435,6.316-6.857,12.715-10.172,19.02-3.305,6.287-6.6,12.805-9.806,19.373h-.247c-3.054-6.421-6.434-12.858-10.046-19.133-3.612-6.228-7.238-12.648-10.778-19.084S96.041,98.3,93.148,91.867A4.5,4.5,0,0,0,91.7,90.528a5.127,5.127,0,0,0-1.91-.367c-.091,0-.183,0-.274.007H55.369C55.318,90.164,55.267,90.162,55.215,90.162ZM262.267,222.379h-.019a39.819,39.819,0,0,1-12.256-1.93,26.082,26.082,0,0,1-10.173-6.059,29.731,29.731,0,0,1-6.776-10.658,47.808,47.808,0,0,1-1.3-26.211,26.735,26.735,0,0,1,3.725-8.413,33.107,33.107,0,0,1,12.68-11.144,37.441,37.441,0,0,1,16.589-3.876l.367,0h.053a49.141,49.141,0,0,1,4.913.247,23.457,23.457,0,0,1,3.994.7v66.111h-.035a25.822,25.822,0,0,1-5.269.986c-1.923.159-4.039.239-6.29.239Z" transform="translate(5882.731 1322.048)" fill="#fff"/>
  </g>
</svg>
