<svg xmlns="http://www.w3.org/2000/svg" width="360.992" height="351.969" viewBox="0 0 360.992 351.969">
  <path id="xd-w" d="M270.242,351.968H90.75a90.325,90.325,0,0,1-50.739-15.5A91.016,91.016,0,0,1,7.132,296.542,90.183,90.183,0,0,1,0,261.218V90.75A90.325,90.325,0,0,1,15.5,40.011,91.017,91.017,0,0,1,55.426,7.132,90.18,90.18,0,0,1,90.75,0H270.242a90.325,90.325,0,0,1,50.739,15.5A91.014,91.014,0,0,1,353.86,55.426a90.181,90.181,0,0,1,7.132,35.324V261.218a90.327,90.327,0,0,1-15.5,50.74,91.015,91.015,0,0,1-39.927,32.879A90.182,90.182,0,0,1,270.242,351.968Zm-3.963-225.958c-14.8,0-27.6,2.932-38.04,8.714a60.39,60.39,0,0,0-23.951,23.247,63.494,63.494,0,0,0-8.235,31.7c0,13.659,2.775,25.187,8.235,34.264A51.269,51.269,0,0,0,226.936,244.4a74.561,74.561,0,0,0,31.189,6.786c.384,0,.77,0,1.145-.009A131.675,131.675,0,0,0,282.5,249a120.446,120.446,0,0,0,24.458-7.263,2.492,2.492,0,0,0,1.451-2.423c-.162-2.558-.36-5.411-.606-8.721-.238-3.211-.359-6.226-.359-8.96V78.517a1.618,1.618,0,0,0,0-.366,1.288,1.288,0,0,0-1.458-1.085h-30.51c-.963,0-1.451.569-1.451,1.69V126.49c-.889-.077-1.7-.136-2.476-.192-.761-.055-1.475-.107-2.123-.167C268.133,126.011,267.061,126.011,266.279,126.011ZM55.214,90.162a1.733,1.733,0,0,0-1.3.584c-.325.4-.245.933.239,1.571l45.528,77L52.946,246.1a2.446,2.446,0,0,0-.359,1.7c.048.369.19.443.4.443a2.5,2.5,0,0,0,.259-.02,3.768,3.768,0,0,1,.423-.029H86.865c1.513,0,2.723-.118,3.389-1.606,3.547-6.3,7.05-12.7,10.411-19.021,3.446-6.481,6.909-12.958,10.292-19.252,3.451-6.422,6.833-12.943,10.052-19.38h.247c3.537,6.593,7.16,13.193,10.771,19.619s7.076,12.837,10.292,19.02,6.476,12.5,9.686,18.767c.954,1.583,2.558,1.7,5.087,1.7h34.376a3.715,3.715,0,0,1,.589-.044c.109,0,.211,0,.3.007h.023c.076,0,.156.006.226.006.3,0,.473-.054.554-.336a2.458,2.458,0,0,0-.239-1.818L144.728,166.9l45.042-74.34-.022-.035a1.414,1.414,0,0,0,.308-1.669,1.4,1.4,0,0,0-1.259-.779,1.414,1.414,0,0,0-.26.024h-31.7a3.486,3.486,0,0,0-1.938.359,3.814,3.814,0,0,0-.972,1.579c-3.227,6.293-6.606,12.692-10.045,19.02-3.428,6.3-6.85,12.7-10.173,19.02-3.287,6.253-6.586,12.77-9.806,19.373h-.247c-3.058-6.429-6.438-12.866-10.046-19.133-3.616-6.237-7.242-12.657-10.778-19.083s-6.8-12.957-9.687-19.372A4.489,4.489,0,0,0,91.7,90.528a5.107,5.107,0,0,0-1.9-.367c-.092,0-.186,0-.279.008H55.369C55.317,90.165,55.265,90.162,55.214,90.162ZM262.267,222.379h-.019a39.819,39.819,0,0,1-12.256-1.93,26.082,26.082,0,0,1-10.173-6.059,29.731,29.731,0,0,1-6.776-10.658,47.808,47.808,0,0,1-1.3-26.211,26.735,26.735,0,0,1,3.725-8.413,33.107,33.107,0,0,1,12.68-11.144,37.441,37.441,0,0,1,16.589-3.876l.367,0h.053a49.141,49.141,0,0,1,4.913.247,23.457,23.457,0,0,1,3.994.7v66.111h-.035a25.822,25.822,0,0,1-5.269.986c-1.923.159-4.039.239-6.29.239Z" fill="#4f565e"/>
</svg>
