<svg xmlns="http://www.w3.org/2000/svg" viewBox="0 0 1586.91 403.77"><defs><style>.cls-1{fill:#007bff;}</style></defs><g id="Layer_2" data-name="Layer 2"><g id="GenAI"><path class="cls-1" d="M177.51,151.42l-59-10.69c-32.29-5.78-46-17.33-46-37,0-21,17.75-35.72,60.31-35.72,40.21,0,67.37,18.18,84.91,42.35l32.51-44.7c-18.4-25-50.48-47.7-117.42-47.7C59.46,18,13.47,55.39,13.47,106.29c0,45.13,29.09,77.42,86.19,88.12l62,11.55c27.8,5.34,43,18.39,43,40.63,0,27-22.24,41.28-66.51,40.21C95.6,285.94,59,265.41,33.15,228L0,277c15.61,26.52,66.73,62.66,138.16,62.66,89.82,0,126.4-43.84,126.4-96C264.56,193.12,237.82,162.75,177.51,151.42Z"/><path class="cls-1" d="M309.07,3c-21.39,0-35.72,14.33-35.72,34S287.68,70.8,309.07,70.8,344.78,56.68,344.78,37,330.45,3,309.07,3Z"/><path class="cls-1" d="M281.26,335.13h55.4V98.38h-55.4Z"/><path class="cls-1" d="M636.53,93.89c-33.57,0-59.45,14.33-75.06,57.53h-1.93c-4.92-35.29-29.94-57.53-71-57.53-37.43,0-62.45,16.47-78.49,56.24h-1.93V98.38H353.58V335.13H409V222.64c0-59.46,22.88-81.49,55.39-81.49,27.37,0,41.28,16.68,41.28,54.54V335.13H561V222.64c0-59.46,22.67-81.49,55-81.49,27.59,0,41.49,14.76,41.49,48.34V335.13h55.4V183.29C712.89,123.83,687,93.89,636.53,93.89Z"/><path class="cls-1" d="M879.3,93.89c-46.4,0-72.71,21-88.32,58.17h-1.93V98.38H733.66V399.51h55.39V281.45H791c14.75,35.29,43.63,58.17,87.47,58.17,63.52,0,105.44-44.7,105.44-123C983.89,138.59,939.19,93.89,879.3,93.89ZM858.35,292.15c-40.64,0-69.3-26.74-69.3-75.5,0-49,28.66-75.5,69.3-75.5,42.56,0,69.29,26.52,69.29,75.5C927.64,265.41,900.91,292.15,858.35,292.15Z"/><path class="cls-1" d="M1162.71,70.8c21.38,0,35.71-14.12,35.71-33.79s-14.33-34-35.71-34S1127,17.33,1127,37,1141.32,70.8,1162.71,70.8Z"/><path class="cls-1" d="M1220.21,73.78c0,9.84,1.49,16.26,3.63,24.39H1134.9v.21h0V278.31h-74.63a2.88,2.88,0,0,1-2.88-2.88v-177h-56.86V275.43a59.81,59.81,0,0,0,59.74,59.74h81.09v0h48.94V144.58h34.4V335.13h55.39V144.58h90.6v78.25c0,61.17,29.94,92.4,83.62,92.4,32.51,0,62-16.9,75.5-58h1.71v23.52c0,50.48-20.53,74.64-67.8,74.64-37.21,0-63.52-16-81.48-46.4l-34.65,39.35c18.18,34.86,63.73,55.39,116.13,55.39,80.42,0,123.19-40.21,123.19-123.4V98.15h-55.39v95.6c0,49.62-20.1,74.21-59.88,74.21-28,0-45.56-16.68-45.56-52.82v-117h-55.39v0h-91.46a43.21,43.21,0,0,1-3.42-17.76c0-21.81,16-32.93,41.07-32.93,20.53,0,39.78,8.34,51.75,22.24l29.09-41.92c-17.11-18-44.27-27.8-82.34-27.8C1255.71,0,1220.21,30.37,1220.21,73.78Z"/></g></g></svg>